<?xml version="1.0" encoding="utf-8"?>
<svg version="1.1" xmlns:xlink="http://www.w3.org/1999/xlink" width="28px" height="28px" xmlns="http://www.w3.org/2000/svg">
  <g transform="matrix(1 0 0 1 -2456 -308 )">
    <path d="M 2470 308  C 2477.84 308  2484 314.16  2484 322  C 2484 329.84  2477.84 336  2470 336  C 2462.16 336  2456 329.84  2456 322  C 2456 314.16  2462.16 308  2470 308  Z " fill-rule="nonzero" fill="#ffffff" stroke="none" />
    <path d="M 2470 308.5  C 2477.56 308.5  2483.5 314.44  2483.5 322  C 2483.5 329.56  2477.56 335.5  2470 335.5  C 2462.44 335.5  2456.5 329.56  2456.5 322  C 2456.5 314.44  2462.44 308.5  2470 308.5  Z " stroke-width="1" stroke="#797979" fill="none" />
  </g>
</svg>