<?xml version="1.0" encoding="utf-8"?>
<svg version="1.1" xmlns:xlink="http://www.w3.org/1999/xlink" width="28px" height="28px" xmlns="http://www.w3.org/2000/svg">
  <g transform="matrix(1 0 0 1 -2412 -308 )">
    <path d="M 2426 308  C 2433.84 308  2440 314.16  2440 322  C 2440 329.84  2433.84 336  2426 336  C 2418.16 336  2412 329.84  2412 322  C 2412 314.16  2418.16 308  2426 308  Z " fill-rule="nonzero" fill="#ffffff" stroke="none" />
    <path d="M 2426 308.5  C 2433.56 308.5  2439.5 314.44  2439.5 322  C 2439.5 329.56  2433.56 335.5  2426 335.5  C 2418.44 335.5  2412.5 329.56  2412.5 322  C 2412.5 314.44  2418.44 308.5  2426 308.5  Z " stroke-width="1" stroke="#797979" fill="none" />
  </g>
</svg>