<?xml version="1.0" encoding="utf-8"?>
<svg version="1.1" xmlns:xlink="http://www.w3.org/1999/xlink" width="60px" height="60px" xmlns="http://www.w3.org/2000/svg">
  <g transform="matrix(1 0 0 1 -2469 -300 )">
    <path d="M 2469 300  L 2529 300  L 2529 360  L 2469 360  L 2469 300  " fill-rule="nonzero" fill="#cccccc" stroke="none" />
    <path d="M 2473 304  L 2525 304  L 2525 356  L 2473 356  L 2473 304  " fill-rule="nonzero" fill="#ffffff" stroke="none" />
    <path d="M 2504.7 318  C 2502.18 318  2500.2 316.02  2500.2 313.5  C 2500.2 310.98  2502.18 309  2504.7 309  C 2507.22 309  2509.2 310.98  2509.2 313.5  C 2509.2 316.02  2507.22 318  2504.7 318  " fill-rule="nonzero" fill="#cccccc" stroke="none" />
    <path d="M 2475 355  L 2475 328.05  L 2487.25 315.8  L 2504.4 325.6  L 2514.2 323.15  L 2524 325.6  L 2524 355  L 2475 355  " fill-rule="nonzero" fill="#169bd5" stroke="none" />
  </g>
</svg>