<?xml version="1.0" encoding="utf-8"?>
<svg version="1.1" xmlns:xlink="http://www.w3.org/1999/xlink" width="60px" height="60px" xmlns="http://www.w3.org/2000/svg">
  <g transform="matrix(1 0 0 1 -2513 -300 )">
    <path d="M 2513 300  L 2573 300  L 2573 360  L 2513 360  L 2513 300  " fill-rule="nonzero" fill="#cccccc" stroke="none" />
    <path d="M 2517 304  L 2569 304  L 2569 356  L 2517 356  L 2517 304  " fill-rule="nonzero" fill="#ffffff" stroke="none" />
    <path d="M 2548.7 318  C 2546.18 318  2544.2 316.02  2544.2 313.5  C 2544.2 310.98  2546.18 309  2548.7 309  C 2551.22 309  2553.2 310.98  2553.2 313.5  C 2553.2 316.02  2551.22 318  2548.7 318  " fill-rule="nonzero" fill="#cccccc" stroke="none" />
    <path d="M 2519 355  L 2519 328.05  L 2531.25 315.8  L 2548.4 325.6  L 2558.2 323.15  L 2568 325.6  L 2568 355  L 2519 355  " fill-rule="nonzero" fill="#169bd5" stroke="none" />
  </g>
</svg>