<?xml version="1.0" encoding="utf-8"?>
<svg version="1.1" xmlns:xlink="http://www.w3.org/1999/xlink" width="22px" height="22px" xmlns="http://www.w3.org/2000/svg">
  <g transform="matrix(1 0 0 1 -2323 -426 )">
    <path d="M 2334 426  C 2340.16 426  2345 430.84  2345 437  C 2345 443.16  2340.16 448  2334 448  C 2327.84 448  2323 443.16  2323 437  C 2323 430.84  2327.84 426  2334 426  Z " fill-rule="nonzero" fill="#ffffff" stroke="none" />
    <path d="M 2334 426.5  C 2339.88 426.5  2344.5 431.12  2344.5 437  C 2344.5 442.88  2339.88 447.5  2334 447.5  C 2328.12 447.5  2323.5 442.88  2323.5 437  C 2323.5 431.12  2328.12 426.5  2334 426.5  Z " stroke-width="1" stroke="#797979" fill="none" />
  </g>
</svg>