<?xml version="1.0" encoding="utf-8"?>
<svg version="1.1" xmlns:xlink="http://www.w3.org/1999/xlink" width="22px" height="22px" xmlns="http://www.w3.org/2000/svg">
  <g transform="matrix(1 0 0 1 -2279 -426 )">
    <path d="M 2290 426  C 2296.16 426  2301 430.84  2301 437  C 2301 443.16  2296.16 448  2290 448  C 2283.84 448  2279 443.16  2279 437  C 2279 430.84  2283.84 426  2290 426  Z " fill-rule="nonzero" fill="#ffffff" stroke="none" />
    <path d="M 2290 426.5  C 2295.88 426.5  2300.5 431.12  2300.5 437  C 2300.5 442.88  2295.88 447.5  2290 447.5  C 2284.12 447.5  2279.5 442.88  2279.5 437  C 2279.5 431.12  2284.12 426.5  2290 426.5  Z " stroke-width="1" stroke="#797979" fill="none" />
  </g>
</svg>