<?xml version="1.0" encoding="utf-8"?>
<svg version="1.1" xmlns:xlink="http://www.w3.org/1999/xlink" width="5px" height="10px" xmlns="http://www.w3.org/2000/svg">
  <g transform="matrix(1 0 0 1 -1431 -752 )">
    <path d="M 4.91408934707904 4.76953907815631  C 4.97136311569301 4.83633934535738  5 4.91315965263861  5 5  C 5 5.08684034736139  4.97136311569301 5.16366065464262  4.91408934707904 5.23046092184369  L 0.910652920962199 9.8997995991984  C 0.853379152348225 9.96659986639947  0.787514318442153 10  0.713058419243986 10  C 0.638602520045819 10  0.572737686139748 9.96659986639947  0.515463917525773 9.8997995991984  L 0.0859106529209622 9.39879759519038  C 0.0286368843069874 9.33199732798931  0 9.25517702070808  0 9.16833667334669  C 0 9.0814963259853  0.0286368843069874 9.00467601870407  0.0859106529209622 8.93787575150301  L 3.46219931271478 5  L 0.0859106529209622 1.06212424849699  C 0.0286368843069874 0.995323981295925  0 0.918503674014696  0 0.831663326653307  C 0 0.744822979291916  0.0286368843069874 0.668002672010687  0.0859106529209622 0.601202404809619  L 0.515463917525773 0.100200400801603  C 0.572737686139748 0.0334001336005341  0.638602520045819 0  0.713058419243986 0  C 0.787514318442153 0  0.853379152348225 0.0334001336005341  0.910652920962199 0.100200400801603  L 4.91408934707904 4.76953907815631  Z " fill-rule="nonzero" fill="#acacac" stroke="none" transform="matrix(1 0 0 1 1431 752 )" />
  </g>
</svg>