<?xml version="1.0" encoding="utf-8"?>
<svg version="1.1" xmlns:xlink="http://www.w3.org/1999/xlink" width="36px" height="36px" xmlns="http://www.w3.org/2000/svg">
  <g transform="matrix(1 0 0 1 -255 -202 )">
    <path d="M 27 16.7109375  C 27.5 16.9921875  27.75 17.421875  27.75 18  C 27.75 18.578125  27.5 19.0078125  27 19.2890625  L 14.25 26.7890625  C 14.015625 26.9296875  13.765625 27  13.5 27  C 13.25 27  13 26.9375  12.75 26.8125  C 12.25 26.515625  12 26.078125  12 25.5  L 12 10.5  C 12 9.921875  12.25 9.484375  12.75 9.1875  C 13.265625 8.90625  13.765625 8.9140625  14.25 9.2109375  L 27 16.7109375  Z M 29.0390625 24.3984375  C 30.1796875 22.4453125  30.75 20.3125  30.75 18  C 30.75 15.6875  30.1796875 13.5546875  29.0390625 11.6015625  C 27.8984375 9.6484375  26.3515625 8.1015625  24.3984375 6.9609375  C 22.4453125 5.8203125  20.3125 5.25  18 5.25  C 15.6875 5.25  13.5546875 5.8203125  11.6015625 6.9609375  C 9.6484375 8.1015625  8.1015625 9.6484375  6.9609375 11.6015625  C 5.8203125 13.5546875  5.25 15.6875  5.25 18  C 5.25 20.3125  5.8203125 22.4453125  6.9609375 24.3984375  C 8.1015625 26.3515625  9.6484375 27.8984375  11.6015625 29.0390625  C 13.5546875 30.1796875  15.6875 30.75  18 30.75  C 20.3125 30.75  22.4453125 30.1796875  24.3984375 29.0390625  C 26.3515625 27.8984375  27.8984375 26.3515625  29.0390625 24.3984375  Z M 33.5859375 8.96484375  C 35.1953125 11.72265625  36 14.734375  36 18  C 36 21.265625  35.1953125 24.27734375  33.5859375 27.03515625  C 31.9765625 29.79296875  29.79296875 31.9765625  27.03515625 33.5859375  C 24.27734375 35.1953125  21.265625 36  18 36  C 14.734375 36  11.72265625 35.1953125  8.96484375 33.5859375  C 6.20703125 31.9765625  4.0234375 29.79296875  2.4140625 27.03515625  C 0.8046875 24.27734375  0 21.265625  0 18  C 0 14.734375  0.8046875 11.72265625  2.4140625 8.96484375  C 4.0234375 6.20703125  6.20703125 4.0234375  8.96484375 2.4140625  C 11.72265625 0.804687499999997  14.734375 0  18 0  C 21.265625 0  24.27734375 0.804687499999997  27.03515625 2.4140625  C 29.79296875 4.0234375  31.9765625 6.20703125  33.5859375 8.96484375  Z " fill-rule="nonzero" fill="#3c3b3d" stroke="none" transform="matrix(1 0 0 1 255 202 )" />
  </g>
</svg>