<?xml version="1.0" encoding="utf-8"?>
<svg version="1.1" xmlns:xlink="http://www.w3.org/1999/xlink" width="30px" height="30px" xmlns="http://www.w3.org/2000/svg">
  <g transform="matrix(1 0 0 1 -2025 -253 )">
    <path d="M 2040 253  C 2048.4 253  2055 259.6  2055 268  C 2055 276.4  2048.4 283  2040 283  C 2031.6 283  2025 276.4  2025 268  C 2025 259.6  2031.6 253  2040 253  Z " fill-rule="nonzero" fill="#e6e6e6" stroke="none" />
    <path d="M 2040 253.5  C 2048.12 253.5  2054.5 259.88  2054.5 268  C 2054.5 276.12  2048.12 282.5  2040 282.5  C 2031.88 282.5  2025.5 276.12  2025.5 268  C 2025.5 259.88  2031.88 253.5  2040 253.5  Z " stroke-width="1" stroke="#797979" fill="none" />
  </g>
</svg>