<?xml version="1.0" encoding="utf-8"?>
<svg version="1.1" xmlns:xlink="http://www.w3.org/1999/xlink" width="30px" height="30px" xmlns="http://www.w3.org/2000/svg">
  <g transform="matrix(1 0 0 1 -2169 -253 )">
    <path d="M 2184 253  C 2192.4 253  2199 259.6  2199 268  C 2199 276.4  2192.4 283  2184 283  C 2175.6 283  2169 276.4  2169 268  C 2169 259.6  2175.6 253  2184 253  Z " fill-rule="nonzero" fill="#ffffff" stroke="none" />
    <path d="M 2184 253.5  C 2192.12 253.5  2198.5 259.88  2198.5 268  C 2198.5 276.12  2192.12 282.5  2184 282.5  C 2175.88 282.5  2169.5 276.12  2169.5 268  C 2169.5 259.88  2175.88 253.5  2184 253.5  Z " stroke-width="1" stroke="#797979" fill="none" />
  </g>
</svg>