<?xml version="1.0" encoding="utf-8"?>
<svg version="1.1" xmlns:xlink="http://www.w3.org/1999/xlink" width="30px" height="30px" xmlns="http://www.w3.org/2000/svg">
  <g transform="matrix(1 0 0 1 -2183 -288 )">
    <path d="M 2198 288  C 2206.4 288  2213 294.6  2213 303  C 2213 311.4  2206.4 318  2198 318  C 2189.6 318  2183 311.4  2183 303  C 2183 294.6  2189.6 288  2198 288  Z " fill-rule="nonzero" fill="#ffffff" stroke="none" />
    <path d="M 2198 288.5  C 2206.12 288.5  2212.5 294.88  2212.5 303  C 2212.5 311.12  2206.12 317.5  2198 317.5  C 2189.88 317.5  2183.5 311.12  2183.5 303  C 2183.5 294.88  2189.88 288.5  2198 288.5  Z " stroke-width="1" stroke="#797979" fill="none" />
  </g>
</svg>