<?xml version="1.0" encoding="utf-8"?>
<svg version="1.1" xmlns:xlink="http://www.w3.org/1999/xlink" width="20px" height="20px" xmlns="http://www.w3.org/2000/svg">
  <g transform="matrix(1 0 0 1 -657 -485 )">
    <path d="M 667 485  C 672.6 485  677 489.4  677 495  C 677 500.6  672.6 505  667 505  C 661.4 505  657 500.6  657 495  C 657 489.4  661.4 485  667 485  Z " fill-rule="nonzero" fill="#ffffff" stroke="none" />
    <path d="M 667 485.5  C 672.32 485.5  676.5 489.68  676.5 495  C 676.5 500.32  672.32 504.5  667 504.5  C 661.68 504.5  657.5 500.32  657.5 495  C 657.5 489.68  661.68 485.5  667 485.5  Z " stroke-width="1" stroke="#797979" fill="none" />
  </g>
</svg>