<?xml version="1.0" encoding="utf-8"?>
<svg version="1.1" xmlns:xlink="http://www.w3.org/1999/xlink" width="36px" height="36px" xmlns="http://www.w3.org/2000/svg">
  <defs>
    <mask fill="white" id="clip32">
      <path d="M 1737 2850  C 1727.01 2850  1719 2841.99  1719 2832  L 1719 2832  C 1719 2822.01  1727.01 2814  1737 2814  L 1737 2814  C 1746.99 2814  1755 2822.01  1755 2832  L 1755 2832  C 1755 2841.99  1746.99 2850  1737 2850  " fill-rule="evenodd" />
    </mask>
  </defs>
  <g transform="matrix(1 0 0 1 -1719 -2814 )">
    <path d="M 1719 2814  L 1755 2814  L 1755 2850  L 1719 2850  L 1719 2814  " fill-rule="nonzero" fill="#cccccc" stroke="none" mask="url(#clip32)" />
    <path d="M 1722 2817  L 1752 2817  L 1752 2847  L 1722 2847  L 1722 2817  " fill-rule="nonzero" fill="#ffffff" stroke="none" mask="url(#clip32)" />
    <path d="M 1740.42 2824.8  C 1738.908 2824.8  1737.72 2823.612  1737.72 2822.1  C 1737.72 2820.588  1738.908 2819.4  1740.42 2819.4  C 1741.932 2819.4  1743.12 2820.588  1743.12 2822.1  C 1743.12 2823.612  1741.932 2824.8  1740.42 2824.8  " fill-rule="nonzero" fill="#cccccc" stroke="none" mask="url(#clip32)" />
    <path d="M 1723 2846  L 1723 2830.6  L 1730 2823.6  L 1739.8 2829.2  L 1745.4 2827.8  L 1751 2829.2  L 1751 2846  L 1723 2846  " fill-rule="nonzero" fill="#169bd5" stroke="none" mask="url(#clip32)" />
  </g>
</svg>