<?xml version="1.0" encoding="utf-8"?>
<svg version="1.1" xmlns:xlink="http://www.w3.org/1999/xlink" width="36px" height="36px" xmlns="http://www.w3.org/2000/svg">
  <g transform="matrix(1 0 0 1 -583 -383 )">
    <path d="M 601 383.5  C 610.8 383.5  618.5 391.2  618.5 401  C 618.5 410.8  610.8 418.5  601 418.5  C 591.2 418.5  583.5 410.8  583.5 401  C 583.5 391.2  591.2 383.5  601 383.5  Z " fill-rule="nonzero" fill="#ffffff" stroke="none" />
    <path d="M 601 383.5  C 610.8 383.5  618.5 391.2  618.5 401  C 618.5 410.8  610.8 418.5  601 418.5  C 591.2 418.5  583.5 410.8  583.5 401  C 583.5 391.2  591.2 383.5  601 383.5  Z " stroke-width="1" stroke-dasharray="9,4" stroke="#797979" fill="none" stroke-dashoffset="0.5" />
  </g>
</svg>