<?xml version="1.0" encoding="utf-8"?>
<svg version="1.1" xmlns:xlink="http://www.w3.org/1999/xlink" width="36px" height="36px" xmlns="http://www.w3.org/2000/svg">
  <defs>
    <mask fill="white" id="clip13">
      <path d="M 547 419  C 537.01 419  529 410.99  529 401  L 529 401  C 529 391.01  537.01 383  547 383  L 547 383  C 556.99 383  565 391.01  565 401  L 565 401  C 565 410.99  556.99 419  547 419  " fill-rule="evenodd" />
    </mask>
  </defs>
  <g transform="matrix(1 0 0 1 -529 -383 )">
    <path d="M 529 383  L 565 383  L 565 419  L 529 419  L 529 383  " fill-rule="nonzero" fill="#cccccc" stroke="none" mask="url(#clip13)" />
    <path d="M 532 386  L 562 386  L 562 416  L 532 416  L 532 386  " fill-rule="nonzero" fill="#ffffff" stroke="none" mask="url(#clip13)" />
    <path d="M 550.42 393.8  C 548.908 393.8  547.72 392.612  547.72 391.1  C 547.72 389.588  548.908 388.4  550.42 388.4  C 551.932 388.4  553.12 389.588  553.12 391.1  C 553.12 392.612  551.932 393.8  550.42 393.8  " fill-rule="nonzero" fill="#cccccc" stroke="none" mask="url(#clip13)" />
    <path d="M 533 415  L 533 399.6  L 540 392.6  L 549.8 398.2  L 555.4 396.8  L 561 398.2  L 561 415  L 533 415  " fill-rule="nonzero" fill="#169bd5" stroke="none" mask="url(#clip13)" />
  </g>
</svg>