<?xml version="1.0" encoding="utf-8"?>
<svg version="1.1" xmlns:xlink="http://www.w3.org/1999/xlink" width="259px" height="36px" xmlns="http://www.w3.org/2000/svg">
  <g transform="matrix(1 0 0 1 -544 -1433 )">
    <path d="M 545 1451  A 17 17 0 0 1 562 1434 L 785 1434  A 17 17 0 0 1 802 1451 A 17 17 0 0 1 785 1468 L 562 1468  A 17 17 0 0 1 545 1451 Z " fill-rule="nonzero" fill="#f4f3f3" stroke="none" fill-opacity="0.592156862745098" />
    <path d="M 544.5 1451  A 17.5 17.5 0 0 1 562 1433.5 L 785 1433.5  A 17.5 17.5 0 0 1 802.5 1451 A 17.5 17.5 0 0 1 785 1468.5 L 562 1468.5  A 17.5 17.5 0 0 1 544.5 1451 Z " stroke-width="1" stroke="#666666" fill="none" stroke-opacity="0.333333333333333" />
  </g>
</svg>