<?xml version="1.0" encoding="utf-8"?>
<svg version="1.1" xmlns:xlink="http://www.w3.org/1999/xlink" width="36px" height="36px" xmlns="http://www.w3.org/2000/svg">
  <g transform="matrix(1 0 0 1 -623 -414 )">
    <path d="M 641 414.5  C 650.8 414.5  658.5 422.2  658.5 432  C 658.5 441.8  650.8 449.5  641 449.5  C 631.2 449.5  623.5 441.8  623.5 432  C 623.5 422.2  631.2 414.5  641 414.5  Z " fill-rule="nonzero" fill="#ffffff" stroke="none" />
    <path d="M 641 414.5  C 650.8 414.5  658.5 422.2  658.5 432  C 658.5 441.8  650.8 449.5  641 449.5  C 631.2 449.5  623.5 441.8  623.5 432  C 623.5 422.2  631.2 414.5  641 414.5  Z " stroke-width="1" stroke-dasharray="9,4" stroke="#797979" fill="none" stroke-dashoffset="0.5" />
  </g>
</svg>