<?xml version="1.0" encoding="utf-8"?>
<svg version="1.1" xmlns:xlink="http://www.w3.org/1999/xlink" width="36px" height="36px" xmlns="http://www.w3.org/2000/svg">
  <defs>
    <mask fill="white" id="clip91">
      <path d="M 587 450  C 577.01 450  569 441.99  569 432  L 569 432  C 569 422.01  577.01 414  587 414  L 587 414  C 596.99 414  605 422.01  605 432  L 605 432  C 605 441.99  596.99 450  587 450  " fill-rule="evenodd" />
    </mask>
  </defs>
  <g transform="matrix(1 0 0 1 -569 -414 )">
    <path d="M 569 414  L 605 414  L 605 450  L 569 450  L 569 414  " fill-rule="nonzero" fill="#cccccc" stroke="none" mask="url(#clip91)" />
    <path d="M 572 417  L 602 417  L 602 447  L 572 447  L 572 417  " fill-rule="nonzero" fill="#ffffff" stroke="none" mask="url(#clip91)" />
    <path d="M 590.42 424.8  C 588.908 424.8  587.72 423.612  587.72 422.1  C 587.72 420.588  588.908 419.4  590.42 419.4  C 591.932 419.4  593.12 420.588  593.12 422.1  C 593.12 423.612  591.932 424.8  590.42 424.8  " fill-rule="nonzero" fill="#cccccc" stroke="none" mask="url(#clip91)" />
    <path d="M 573 446  L 573 430.6  L 580 423.6  L 589.8 429.2  L 595.4 427.8  L 601 429.2  L 601 446  L 573 446  " fill-rule="nonzero" fill="#169bd5" stroke="none" mask="url(#clip91)" />
  </g>
</svg>