<?xml version="1.0" encoding="utf-8"?>
<svg version="1.1" xmlns:xlink="http://www.w3.org/1999/xlink" width="259px" height="36px" xmlns="http://www.w3.org/2000/svg">
  <g transform="matrix(1 0 0 1 -584 -1464 )">
    <path d="M 585 1482  A 17 17 0 0 1 602 1465 L 825 1465  A 17 17 0 0 1 842 1482 A 17 17 0 0 1 825 1499 L 602 1499  A 17 17 0 0 1 585 1482 Z " fill-rule="nonzero" fill="#f4f3f3" stroke="none" fill-opacity="0.592156862745098" />
    <path d="M 584.5 1482  A 17.5 17.5 0 0 1 602 1464.5 L 825 1464.5  A 17.5 17.5 0 0 1 842.5 1482 A 17.5 17.5 0 0 1 825 1499.5 L 602 1499.5  A 17.5 17.5 0 0 1 584.5 1482 Z " stroke-width="1" stroke="#666666" fill="none" stroke-opacity="0.333333333333333" />
  </g>
</svg>