<?xml version="1.0" encoding="utf-8"?>
<svg version="1.1" xmlns:xlink="http://www.w3.org/1999/xlink" width="128px" height="94px" xmlns="http://www.w3.org/2000/svg">
  <g transform="matrix(1 0 0 1 -577 -212 )">
    <path d="M 577 212  L 705 212  L 705 306  L 577 306  L 577 212  " fill-rule="nonzero" fill="#cccccc" stroke="none" />
    <path d="M 584 219  L 698 219  L 698 299  L 584 299  L 584 219  " fill-rule="nonzero" fill="#ffffff" stroke="none" />
    <path d="M 650.61 240.2  C 646.662 240.2  643.56 237.098  643.56 233.15  C 643.56 229.202  646.662 226.1  650.61 226.1  C 654.558 226.1  657.66 229.202  657.66 233.15  C 657.66 237.098  654.558 240.2  650.61 240.2  " fill-rule="nonzero" fill="#cccccc" stroke="none" />
    <path d="M 587 297  L 587 255.75  L 614.25 237  L 652.4 263.953125  L 674.2 248.25  L 696 263.953125  L 696 297  L 587 297  " fill-rule="nonzero" fill="#169bd5" stroke="none" />
  </g>
</svg>