<?xml version="1.0" encoding="utf-8"?>
<svg version="1.1" xmlns:xlink="http://www.w3.org/1999/xlink" width="128px" height="94px" xmlns="http://www.w3.org/2000/svg">
  <g transform="matrix(1 0 0 1 -566 -247 )">
    <path d="M 566 247  L 694 247  L 694 341  L 566 341  L 566 247  " fill-rule="nonzero" fill="#cccccc" stroke="none" />
    <path d="M 573 254  L 687 254  L 687 334  L 573 334  L 573 254  " fill-rule="nonzero" fill="#ffffff" stroke="none" />
    <path d="M 639.61 275.2  C 635.662 275.2  632.56 272.098  632.56 268.15  C 632.56 264.202  635.662 261.1  639.61 261.1  C 643.558 261.1  646.66 264.202  646.66 268.15  C 646.66 272.098  643.558 275.2  639.61 275.2  " fill-rule="nonzero" fill="#cccccc" stroke="none" />
    <path d="M 576 332  L 576 290.75  L 603.25 272  L 641.4 298.953125  L 663.2 283.25  L 685 298.953125  L 685 332  L 576 332  " fill-rule="nonzero" fill="#169bd5" stroke="none" />
  </g>
</svg>