<?xml version="1.0" encoding="utf-8"?>
<svg version="1.1" xmlns:xlink="http://www.w3.org/1999/xlink" width="9px" height="12px" xmlns="http://www.w3.org/2000/svg">
  <g transform="matrix(1 0 0 1 -439 -250 )">
    <path d="M 5.48149951314508 11.9190340909091  C 5.42599805258033 11.9730113636364  5.36027263875365 12  5.28432327166504 12  L 3.77702044790652 12  C 3.70107108081792 12  3.63534566699124 11.9744318181818  3.57984420642649 11.9232954545455  C 3.52434274586173 11.8721590909091  3.49659201557936 11.8068181818182  3.49659201557936 11.7272727272727  L 3.49659201557936 8.91477272727273  L 0.972736124634859 8.91477272727273  C 0.896786757546251 8.91477272727273  0.831061343719572 8.88920454545455  0.77555988315482 8.83806818181818  C 0.720058422590068 8.78693181818182  0.692307692307692 8.72159090909091  0.692307692307692 8.64204545454546  L 0.692307692307692 7.76420454545455  C 0.692307692307692 7.69034090909091  0.720058422590068 7.62642045454545  0.77555988315482 7.57244318181818  C 0.831061343719572 7.51846590909091  0.896786757546251 7.49147727272727  0.972736124634859 7.49147727272727  L 3.49659201557936 7.49147727272727  L 3.49659201557936 6.76704545454546  L 0.972736124634859 6.76704545454546  C 0.896786757546251 6.76704545454546  0.831061343719572 6.74147727272727  0.77555988315482 6.69034090909091  C 0.720058422590068 6.63920454545455  0.692307692307692 6.57386363636364  0.692307692307692 6.49431818181818  L 0.692307692307692 5.60795454545455  C 0.692307692307692 5.53409090909091  0.720058422590068 5.47017045454545  0.77555988315482 5.41619318181818  C 0.831061343719572 5.36221590909091  0.896786757546251 5.33522727272727  0.972736124634859 5.33522727272727  L 2.84810126582278 5.33522727272727  L 0.0350535540408958 0.409090909090909  C -0.0116845180136319 0.318181818181818  -0.0116845180136319 0.227272727272726  0.0350535540408958 0.136363636363636  C 0.0934761441090555 0.0454545454545454  0.175267770204479 0  0.280428432327167 0  L 1.98052580331061 0  C 2.09152872444012 0  2.17624148003895 0.0511363636363638  2.23466407010711 0.153409090909091  L 4.11879259980526 3.77556818181818  C 4.22979552093476 3.99147727272727  4.39337877312561 4.34659090909091  4.6095423563778 4.84090909090909  C 4.66796494644596 4.70454545454545  4.7570593962999 4.51136363636363  4.87682570593963 4.26136363636364  C 4.99659201557936 4.01136363636364  5.07692307692308 3.83806818181818  5.11781888997079 3.74147727272727  L 6.79162609542356 0.161931818181819  C 6.83836416747809 0.0539772727272716  6.92307692307692 0  7.04576436222006 0  L 8.71957156767283 0  C 8.81888997078871 0  8.89776046738072 0.0454545454545454  8.95618305744888 0.136363636363636  C 9.00876338851022 0.21590909090909  9.01168451801363 0.303977272727272  8.9649464459591 0.400568181818181  L 6.22200584225901 5.33522727272727  L 8.10613437195716 5.33522727272727  C 8.18208373904577 5.33522727272727  8.24780915287244 5.36221590909091  8.3033106134372 5.41619318181818  C 8.35881207400195 5.47017045454545  8.38656280428432 5.53409090909091  8.38656280428432 5.60795454545455  L 8.38656280428432 6.49431818181818  C 8.38656280428432 6.57386363636364  8.35881207400195 6.63920454545455  8.3033106134372 6.69034090909091  C 8.24780915287244 6.74147727272727  8.18208373904577 6.76704545454546  8.10613437195716 6.76704545454546  L 5.56475170399221 6.76704545454546  L 5.56475170399221 7.49147727272727  L 8.10613437195716 7.49147727272727  C 8.18208373904577 7.49147727272727  8.24780915287244 7.51846590909091  8.3033106134372 7.57244318181818  C 8.35881207400195 7.62642045454545  8.38656280428432 7.69034090909091  8.38656280428432 7.76420454545455  L 8.38656280428432 8.64204545454546  C 8.38656280428432 8.72159090909091  8.35881207400195 8.78693181818182  8.3033106134372 8.83806818181818  C 8.24780915287244 8.88920454545455  8.18208373904577 8.91477272727273  8.10613437195716 8.91477272727273  L 5.56475170399221 8.91477272727273  L 5.56475170399221 11.7272727272727  C 5.56475170399221 11.8011363636364  5.53700097370983 11.8650568181818  5.48149951314508 11.9190340909091  Z " fill-rule="nonzero" fill="#000000" stroke="none" transform="matrix(1 0 0 1 439 250 )" />
  </g>
</svg>