<?xml version="1.0" encoding="utf-8"?>
<svg version="1.1" xmlns:xlink="http://www.w3.org/1999/xlink" width="40px" height="40px" xmlns="http://www.w3.org/2000/svg">
  <g transform="matrix(1 0 0 1 -337 -404 )">
    <path d="M 357 404.5  C 367.92 404.5  376.5 413.08  376.5 424  C 376.5 434.92  367.92 443.5  357 443.5  C 346.08 443.5  337.5 434.92  337.5 424  C 337.5 413.08  346.08 404.5  357 404.5  Z " fill-rule="nonzero" fill="#ffffff" stroke="none" />
    <path d="M 357 404.5  C 367.92 404.5  376.5 413.08  376.5 424  C 376.5 434.92  367.92 443.5  357 443.5  C 346.08 443.5  337.5 434.92  337.5 424  C 337.5 413.08  346.08 404.5  357 404.5  Z " stroke-width="1" stroke-dasharray="9,4" stroke="#797979" fill="none" stroke-dashoffset="0.5" />
  </g>
</svg>