<?xml version="1.0" encoding="utf-8"?>
<svg version="1.1" xmlns:xlink="http://www.w3.org/1999/xlink" width="7px" height="11px" xmlns="http://www.w3.org/2000/svg">
  <g transform="matrix(1 0 0 1 -118 -213 )">
    <path d="M 4.26338851022395 10.92578125  C 4.22022070756248 10.9752604166667  4.16910094125284 11  4.11002921129503 11  L 2.93768257059396 11  C 2.87861084063616 11  2.82749107432652 10.9765625  2.78432327166504 10.9296875  C 2.74115546900357 10.8828125  2.71957156767283 10.8229166666667  2.71957156767283 10.75  L 2.71957156767283 8.171875  L 0.756572541382668 8.171875  C 0.697500811424862 8.171875  0.646381045115222 8.1484375  0.603213242453749 8.1015625  C 0.560045439792275 8.0546875  0.538461538461539 7.99479166666667  0.538461538461539 7.921875  L 0.538461538461539 7.1171875  C 0.538461538461539 7.04947916666667  0.560045439792275 6.99088541666667  0.603213242453749 6.94140625  C 0.646381045115222 6.89192708333333  0.697500811424862 6.8671875  0.756572541382668 6.8671875  L 2.71957156767283 6.8671875  L 2.71957156767283 6.203125  L 0.756572541382668 6.203125  C 0.697500811424862 6.203125  0.646381045115222 6.1796875  0.603213242453749 6.1328125  C 0.560045439792275 6.0859375  0.538461538461539 6.02604166666667  0.538461538461539 5.953125  L 0.538461538461539 5.140625  C 0.538461538461539 5.07291666666667  0.560045439792275 5.01432291666667  0.603213242453749 4.96484375  C 0.646381045115222 4.91536458333333  0.697500811424862 4.890625  0.756572541382668 4.890625  L 2.21518987341772 4.890625  L 0.0272638753651412 0.375  C -0.00908795845504707 0.291666666666666  -0.00908795845504707 0.208333333333332  0.0272638753651412 0.125  C 0.0727036676403765 0.0416666666666666  0.136319376825706 0  0.21811100292113 0  L 1.54040895813048 0  C 1.62674456345342 0  1.69263226225252 0.0468750000000001  1.73807205452775 0.140625  L 3.20350535540409 3.4609375  C 3.28984096072704 3.65885416666667  3.4170723790977 3.984375  3.58519961051607 4.4375  C 3.6306394027913 4.3125  3.69993508601104 4.13541666666667  3.79308666017527 3.90625  C 3.8862382343395 3.67708333333333  3.94871794871795 3.51822916666667  3.98052580331061 3.4296875  L 5.2823758519961 0.148437500000001  C 5.31872768581629 0.0494791666666656  5.38461538461539 0  5.48003894839338 0  L 6.78188899707887 0  C 6.85913664394677 0  6.92048036351834 0.0416666666666666  6.96592015579357 0.125  C 7.00681596884129 0.197916666666666  7.00908795845505 0.278645833333333  6.97273612463486 0.367187499999999  L 4.83933787731256 4.890625  L 6.3047711781889 4.890625  C 6.36384290814671 4.890625  6.41496267445635 4.91536458333333  6.45813047711782 4.96484375  C 6.50129827977929 5.01432291666667  6.52288218111003 5.07291666666667  6.52288218111003 5.140625  L 6.52288218111003 5.953125  C 6.52288218111003 6.02604166666667  6.50129827977929 6.0859375  6.45813047711782 6.1328125  C 6.41496267445635 6.1796875  6.36384290814671 6.203125  6.3047711781889 6.203125  L 4.32814021421616 6.203125  L 4.32814021421616 6.8671875  L 6.3047711781889 6.8671875  C 6.36384290814671 6.8671875  6.41496267445635 6.89192708333333  6.45813047711782 6.94140625  C 6.50129827977929 6.99088541666667  6.52288218111003 7.04947916666667  6.52288218111003 7.1171875  L 6.52288218111003 7.921875  C 6.52288218111003 7.99479166666667  6.50129827977929 8.0546875  6.45813047711782 8.1015625  C 6.41496267445635 8.1484375  6.36384290814671 8.171875  6.3047711781889 8.171875  L 4.32814021421616 8.171875  L 4.32814021421616 10.75  C 4.32814021421616 10.8177083333333  4.30655631288543 10.8763020833333  4.26338851022395 10.92578125  Z " fill-rule="nonzero" fill="#000000" stroke="none" transform="matrix(1 0 0 1 118 213 )" />
  </g>
</svg>