<?xml version="1.0" encoding="utf-8"?>
<svg version="1.1" xmlns:xlink="http://www.w3.org/1999/xlink" width="61px" height="59px" xmlns="http://www.w3.org/2000/svg">
  <g transform="matrix(1 0 0 1 -124 -792 )">
    <path d="M 124 792  L 185 792  L 185 851  L 124 851  L 124 792  " fill-rule="nonzero" fill="#cccccc" stroke="none" />
    <path d="M 128 796  L 181 796  L 181 847  L 128 847  L 128 796  " fill-rule="nonzero" fill="#ffffff" stroke="none" />
    <path d="M 160.145 809.7  C 157.667 809.7  155.72 807.753  155.72 805.275  C 155.72 802.797  157.667 800.85  160.145 800.85  C 162.623 800.85  164.57 802.797  164.57 805.275  C 164.57 807.753  162.623 809.7  160.145 809.7  " fill-rule="nonzero" fill="#cccccc" stroke="none" />
    <path d="M 130 846  L 130 819.6  L 142.5 807.6  L 160 818.144262295082  L 170 814.8  L 180 818.144262295082  L 180 846  L 130 846  " fill-rule="nonzero" fill="#169bd5" stroke="none" />
  </g>
</svg>