<?xml version="1.0" encoding="utf-8"?>
<svg version="1.1" xmlns:xlink="http://www.w3.org/1999/xlink" width="37px" height="40px" xmlns="http://www.w3.org/2000/svg">
  <defs>
    <mask fill="white" id="clip21">
      <path d="M 138.5 240  C 128.2325 240  120 231.7675  120 221.5  L 120 218.5  C 120 208.2325  128.2325 200  138.5 200  L 138.5 200  C 148.7675 200  157 208.2325  157 218.5  L 157 221.5  C 157 231.7675  148.7675 240  138.5 240  " fill-rule="evenodd" />
    </mask>
  </defs>
  <g transform="matrix(1 0 0 1 -120 -200 )">
    <path d="M 120 200  L 157 200  L 157 240  L 120 240  L 120 200  " fill-rule="nonzero" fill="#cccccc" stroke="none" mask="url(#clip21)" />
    <path d="M 123 203  L 154 203  L 154 237  L 123 237  L 123 203  " fill-rule="nonzero" fill="#ffffff" stroke="none" mask="url(#clip21)" />
    <path d="M 142.015 211.55  C 140.461 211.55  139.24 210.329  139.24 208.775  C 139.24 207.221  140.461 206  142.015 206  C 143.569 206  144.79 207.221  144.79 208.775  C 144.79 210.329  143.569 211.55  142.015 211.55  " fill-rule="nonzero" fill="#cccccc" stroke="none" mask="url(#clip21)" />
    <path d="M 124 236  L 124 218.4  L 131.25 210.4  L 141.4 216.8  L 147.2 215.2  L 153 216.8  L 153 236  L 124 236  " fill-rule="nonzero" fill="#169bd5" stroke="none" mask="url(#clip21)" />
  </g>
</svg>