<?xml version="1.0" encoding="utf-8"?>
<svg version="1.1" xmlns:xlink="http://www.w3.org/1999/xlink" width="40px" height="40px" xmlns="http://www.w3.org/2000/svg">
  <defs>
    <mask fill="white" id="clip21">
      <path d="M 564 212  C 552.9 212  544 203.1  544 192  L 544 192  C 544 180.9  552.9 172  564 172  L 564 172  C 575.1 172  584 180.9  584 192  L 584 192  C 584 203.1  575.1 212  564 212  " fill-rule="evenodd" />
    </mask>
  </defs>
  <g transform="matrix(1 0 0 1 -544 -172 )">
    <path d="M 544 172  L 584 172  L 584 212  L 544 212  L 544 172  " fill-rule="nonzero" fill="#cccccc" stroke="none" mask="url(#clip21)" />
    <path d="M 547 175  L 581 175  L 581 209  L 547 209  L 547 175  " fill-rule="nonzero" fill="#ffffff" stroke="none" mask="url(#clip21)" />
    <path d="M 567.8 184  C 566.12 184  564.8 182.68  564.8 181  C 564.8 179.32  566.12 178  567.8 178  C 569.48 178  570.8 179.32  570.8 181  C 570.8 182.68  569.48 184  567.8 184  " fill-rule="nonzero" fill="#cccccc" stroke="none" mask="url(#clip21)" />
    <path d="M 548 208  L 548 190.4  L 556 182.4  L 567.2 188.8  L 573.6 187.2  L 580 188.8  L 580 208  L 548 208  " fill-rule="nonzero" fill="#169bd5" stroke="none" mask="url(#clip21)" />
  </g>
</svg>